<?xml version="1.0" encoding="utf-8"?>
<!-- Generator: Adobe Illustrator 21.0.0, SVG Export Plug-In . SVG Version: 6.00 Build 0)  -->
<svg version="1.1" id="Capa_1" xmlns="http://www.w3.org/2000/svg" xmlns:xlink="http://www.w3.org/1999/xlink" x="0px" y="0px"
	 viewBox="0 0 100 100" style="enable-background:new 0 0 100 100;" xml:space="preserve">
<style type="text/css">
	.st0{display:none;}
	.st1{display:inline;fill:#93D3E8;}
	.st2{display:inline;fill:#B7844E;}
	.st3{display:inline;}
	.st4{fill:#CC9357;}
	.st5{display:inline;fill:#F2F1EF;}
	.st6{display:inline;fill:#7F8F96;}
	.st7{display:inline;fill:#A07244;}
	.st8{fill:#B7844E;}
	.st9{fill:#C2C1BF;}
	.st10{display:inline;fill:#DFDEDC;}
	.st11{display:none;fill:#FFFFFF;}
	.st12{fill:#FFFFFF;}
</style>
<g class="st0">
	<path class="st1" d="M50,0c27.6,0,50,22.4,50,50s-22.4,50-50,50S0,77.6,0,50S22.4,0,50,0z"/>
	<path class="st2" d="M83,87.5C74.2,95.3,62.7,100,50,100c-12.6,0-24.2-4.7-33-12.5V12.5C25.8,4.7,37.4,0,50,0
		c12.7,0,24.2,4.7,33,12.5V87.5z"/>
	<g class="st3">
		<path class="st4" d="M47.3,84.3c1.7,0.3,3.1,2.1,4.8,5.9c0.8,1.7,1.7,4.3,2.8,7.6l0.6,1.8c0.9-0.1,1.8-0.2,2.7-0.4
			c-0.4,0.1-0.8,0.1-1.2,0.2c-0.3-0.8-0.6-1.7-0.9-2.5c-1.7-4.8-3.1-8.9-4.5-10.9c-2.9-4.1-6.1-6.3-8.4-6c-1.7,0.3-3,1.8-3.9,4.7
			c-1,3.3,0.3,8.7,2.6,14.6c1.7,0.3,3.5,0.5,5.3,0.6c-2-4.2-3.2-7.9-2.6-9.4c0.5-1.1,1.2-1.2,1.6-1.1c2.2,0.3,5.2,7.3,6.2,10.5
			c1,0,2-0.1,2.9-0.2c-0.4,0-0.8,0.1-1.1,0.1l-0.5-1.5c-1.2-3.3-2.1-5.9-2.8-7.6c-1.4-3.3-2.7-5-3.9-5.2c-1.1-0.2-2.3,0.8-3.9,2.3
			c-1.3,1.3-0.2,6,2.2,11.9c-0.5,0-0.9-0.1-1.4-0.2c-2.4-6-3.3-11-1.6-12.7C44.2,85.1,45.7,84,47.3,84.3z M66.2,97.3
			c-6-7.1-12.1-12.9-17-17.5c-2.9-2.7-5.4-5.1-7.2-7c-4.6-5.1-7.6-12.2-11.1-20.5c-3.6-8.4-7.5-17.8-13.9-26.4v5.3
			c4,5.3,7.5,11.2,10.2,17.6c4.2,10,5.5,20.1,6.8,30c0.9,6.8,1.8,13.4,3.5,19.7c1.3,0.3,2.7,0.6,4.1,0.9l-1-0.2
			c-2.2-5.9-3.4-11.3-2.4-14.7c1.1-3.3,2.7-5.2,4.9-5.5c2.9-0.4,6.4,1.9,9.6,6.5c1.5,2.1,2.9,6.1,4.7,11.2c0.3,0.9,0.6,1.8,0.9,2.7
			c1.2-0.2,2.4-0.4,3.6-0.7l-1,0.2c0.1-0.5,0.2-1,0.4-1.3c0.5-0.7,1.2-1,2.1-0.9c0.5,0.1,1,0.5,1.6,1.1c0.5-0.2,1-0.3,1.5-0.5
			L66.2,97.3z M50.7,68.6C58,72.4,66,81.9,70.8,87.5c0.6,0.7,1.1,1.3,1.6,1.9l-0.2-0.3c-5.1-10.6-22.7-26.5-28-27.6
			c-0.6-0.1-0.8,0-0.8,0c-0.4,0.3-0.6,0.8-0.6,1.5c0.2,3.3,5.5,9.3,12.5,14.1c4.6,3.2,11.1,11,16.4,18c2.1-1,4.1-2.2,6-3.5
			c-6-12.2-14.2-22-21.2-27.2c-1-0.7-2-1.5-3-2.2C44,55,33.1,46.8,24,30.7c-2-3.6-4.4-6.9-7-9.9v2.9c7.1,9.1,11.3,19.1,15.1,28
			c3.5,8.2,6.4,15.2,10.9,20.2c1.8,2,4.2,4.3,7.1,7c5,4.7,11.3,10.7,17.4,18c1-0.4,2-0.8,3-1.2c-5.2-6.8-11.5-14.4-15.9-17.5
			C47.1,73,41.8,66.8,41.6,63c-0.1-1,0.3-1.9,1-2.5c0.4-0.4,1.1-0.5,1.9-0.3c6,1.3,24,18.1,28.9,28.3c1.4,2.8,1.5,3.4,0.9,3.8
			c-0.7,0.5-1.2-0.1-4.5-4c-4.4-5.2-12.6-15-19.7-18.6c-0.3-0.2-0.4-0.5-0.3-0.9C50,68.6,50.4,68.5,50.7,68.6z M62.4,98.1
			c-0.1,0.1-0.1,0.2-0.2,0.3c0.7-0.2,1.5-0.4,2.2-0.6l-0.7,0.2c-0.2-0.1-0.3-0.2-0.5-0.2C62.7,97.8,62.5,97.9,62.4,98.1z M41.9,1.8
			c4.1,1.7,8.7,1.1,12.7-1.6c0.6,0.1,1.2,0.1,1.9,0.2c-3,2.4-6.4,3.6-9.8,3.6c-1.8,0-3.5-0.3-5.2-1.1c-1.2-0.5-2.2-1.1-2.9-1.6
			c0.4-0.1,0.8-0.2,1.2-0.3c-2.3,0.5-4.5,1.1-6.7,1.9c2.1,1.5,3.9,3.3,5.5,5.8c0.7,1.1,2.1,4.7,4,9.6C48.1,33.2,59.9,63.9,68.5,63
			c2.9-0.3,4.8-1.7,5.8-4.2c2.2-5.9-1.6-17.4-8.2-24.6c-5.5-5.9-12.3-9.6-14.9-8c-1.6,1-1.5,4.2,0.3,9c5,13.2,10.3,21.1,14.6,21.8
			c1.6,0.2,3.1-0.6,4.5-2.4c2-2.7,1-6.4-0.2-9C67.2,38.7,59.8,32.4,57,32.3c-0.5,0-0.7,0.2-0.7,0.3c-1.4,2.4,0.7,11,4.6,15.8
			c1.4,1.7,3.5,3.6,5.8,2.8c1-0.3,1.6-0.9,1.8-1.8c0.5-2.6-2.6-7.1-5.8-9.8c-1.7-1.5-2.7-1.6-3-1.5c-0.6,0.2-0.7,1.5-0.2,3.2
			c0.9,2.9,3.3,5.9,5.2,5.4c0.5-0.1,0.7-0.3,0.8-0.4c0.1-0.7-2-2.6-3.9-3.9c-0.3-0.2-0.4-0.6-0.2-0.9c0.2-0.3,0.6-0.4,0.9-0.2
			c1.1,0.7,4.8,3.2,4.5,5.2c-0.1,0.5-0.4,1.2-1.7,1.5c-3.1,0.8-5.8-3.2-6.8-6.2c-0.8-2.5-0.4-4.2,0.9-4.8c1.2-0.5,3,0.7,4.2,1.8
			c3,2.5,6.9,7.6,6.2,11c-0.2,0.9-0.8,2.2-2.6,2.8c-2.4,0.8-4.9-0.3-7.2-3.2c-4-5-6.5-14.2-4.7-17.3c0.3-0.4,0.8-1,1.9-0.9
			c3.6,0.2,11.2,7,14.5,14.1c1.9,4.2,2,7.7,0.1,10.3c-1.7,2.2-3.6,3.2-5.7,2.9c-6.5-1-12.6-14.6-15.6-22.6c-2.6-7-1.3-9.6,0.2-10.5
			c3.7-2.3,11.3,2.5,16.5,8.2c6.3,6.8,11.2,18.8,8.5,25.9c-1.1,3-3.5,4.7-6.9,5.1c-0.2,0-0.3,0-0.5,0c-8.7,0-18.5-23.4-27-45.4
			c-1.8-4.7-3.2-8.4-3.9-9.4c-1.6-2.6-3.6-4.4-5.9-5.9C30.4,4,29.3,4.5,28.3,5c8.1,5.5,11,14,13.1,20.2c0.3,0.9,0.6,1.7,0.9,2.5
			c1.1,2.9,3.6,7.7,6,12.3c5.4,10.3,7.5,14.7,6.3,16c-0.2,0.2-0.4,0.4-0.9,0.4c-0.2,0-0.5,0-0.7-0.2c-4.8-1.8-13.2-11.5-21.4-20.9
			l-1.4-1.6c-3.5-4-5.5-7.9-7.5-11.6C21,18.8,19.4,15.8,17,13v5.8c2.9,3.3,5.7,7.1,8.1,11.2c9,15.9,19.8,24,29.3,31
			c1,0.8,2,1.5,3,2.3c6.6,5,15.1,14.6,21.5,27.5c1-0.7,2-1.5,2.9-2.2c-3.2-8.4-5.8-17.1-3.2-33.5C82.4,31.6,68.3,25.7,59,21.8
			c-2-0.8-3.7-1.5-5-2.3c-4.6-2.7-6.8-5.3-6.6-7.9c0.2-3,3.2-5.8,9.5-8.6c1.3-0.6,2.4-1.2,3.5-1.9C57,0.4,53.5,0,50,0
			c-3.4,0-6.6,0.3-9.8,1C40.7,1.3,41.2,1.5,41.9,1.8L41.9,1.8z M29.5,84.1c0.6-0.3,1.2-2.8,0-10.5c-0.9-5.8-2.6-13.1-4.7-19.7
			c-1.5-5-4.4-10.3-7.8-15.2V41c2.9,4.4,6,10,7,14.6c0.4,2,1,4.4,1.6,6.9c3.1,13.4,3.6,16.4,2.4,17.1c-0.1,0.1-0.2,0.1-0.4,0.1
			c-0.3,0-0.6-0.1-1-0.5c-2.8-2.9-9.4-19.5-9.2-28c0-1.3,0.1-2.3,0.9-2.4c0.6-0.1,1.7-0.1,4.9,16.3c0.1,0.3-0.2,0.7-0.5,0.8
			c-0.3,0.1-0.7-0.2-0.7-0.5c-1.1-5.6-2.5-11.5-3.4-14.1l0,0c-0.2,7.8,5.9,23.6,8.6,26.8c0.1-2.3-1.8-10-3-15.3
			c-0.6-2.5-1.2-4.9-1.6-6.9c-0.8-3.8-3.3-8.5-5.7-12.5v15.1c2,7.8,4.8,16.7,9.4,22.9C28.7,84.5,29.4,84.2,29.5,84.1z M83,76.9V54.4
			l0,0.1C82.5,60.9,81.8,69.2,83,76.9z M81.1,10.8l0.4,0.3L81.1,10.8z M60.8,1.2c0.4,0.1,0.8,0.2,1.1,0.3
			C61.6,1.4,61.2,1.3,60.8,1.2z M76.4,10.2c0.4,3.4-0.7,6.1-3,7.3c-2.7,1.4-6.6,0.5-9.6-2.3c-3.1-2.8-2.9-5-2.5-6
			c0.8-2,3.5-3.2,6.9-3C70,6.4,71.3,6.9,71.9,8c1,1.7-0.1,3.8-0.2,3.9l-0.1,0.2c0,0-1.2,1.2-2.8,1.1c-0.9-0.1-1.8-0.5-2.5-1.4
			c-0.2-0.3-0.2-0.7,0.1-0.9s0.7-0.2,0.9,0.1c0.5,0.6,1,0.9,1.6,1c0.8,0.1,1.5-0.5,1.8-0.7c0.2-0.4,0.7-1.7,0.1-2.6
			c-0.4-0.7-1.3-1-2.7-1.1c-2.7-0.1-5,0.8-5.6,2.2c-0.5,1.2,0.3,2.9,2.2,4.6c2.7,2.4,6,3.2,8.2,2.1c1.8-1,2.6-3.1,2.3-6
			C75,9.5,74.9,8,74.6,6.5c-2.4-1.3-4.8-2.5-7.4-3.4c-1.1,0.7-2.4,1.4-3.7,2.1c-3.6,2-7.8,4.3-9.2,6c-0.3,0.3,0.2,1.1,0.5,1.4
			c3,4.1,17.1,11.9,22.6,9.6c2.4-1,2.2-6.7,0.8-13.6c-0.7-0.5-1.4-0.9-2.1-1.4C76.2,8.2,76.3,9.1,76.4,10.2z M83,18.8v-6.3
			c-0.3-0.3-0.6-0.5-1-0.8C82.4,13.9,82.7,16.3,83,18.8z M18.4,88.8c0.4,0.3,0.8,0.7,1.3,1C19.3,89.4,18.8,89.1,18.4,88.8z M17,86.5
			v1.1c0.3,0.3,0.7,0.6,1,0.8C17.7,87.7,17.3,87.1,17,86.5z M51.2,100c-0.4-1.2-1.1-2.9-1.9-4.7c-1.8-3.8-2.9-4.6-3.2-4.6h0
			c0,0-0.1,0.1-0.2,0.4c-0.5,1.1,0.8,4.6,2.9,8.9c-0.4,0-0.9,0-1.3,0c0.8,0,1.7,0.1,2.6,0.1c0.8,0,1.6,0,2.5-0.1
			C52,100,51.6,100,51.2,100z M32.4,3.2l-0.8,0.3L32.4,3.2z M81.7,54.4c0.3-3.5,0.5-6.2,0.3-7.8c-0.7-6.9-3.2-17.8-3.2-17.9
			c-0.1-0.3,0.1-0.7,0.5-0.8c0.3-0.1,0.7,0.1,0.8,0.5c0,0.1,2,8.5,2.9,15.3V32.9c-0.2-1.7-0.3-3.5-0.4-5.3c-0.5-6.3-1.1-11.9-2-17.1
			c-0.3-0.2-0.6-0.5-0.9-0.7c1.2,6.6,1.3,12.5-1.8,13.7c-0.8,0.3-1.7,0.5-2.8,0.5c-7,0-18.4-6.6-21.3-10.5c-1.1-1.5-0.8-2.5-0.4-3
			c1.6-1.9,5.6-4.2,9.5-6.3c1-0.5,1.9-1.1,2.8-1.6l0.7,0.3c-1.4-0.5-2.9-0.9-4.4-1.3c-1.3,0.9-2.9,1.8-4.7,2.6
			c-5.7,2.6-8.6,5.1-8.7,7.5c-0.1,2.1,1.9,4.3,6,6.8c1.3,0.7,2.9,1.4,4.9,2.3c4.8,2,10.8,4.5,15.2,9.6c5.2,6,6.9,14.2,5.2,25
			c-2.5,15.9-0.1,24.3,3,32.4l0.2-0.2v-4.8C80.2,73.4,81.1,62.4,81.7,54.4z M17,72.5v4.1c1.6,3,3.4,6.7,5.3,10.6c1,2,2,4.1,3,6.2
			c1.1,0.6,2.1,1.2,3.2,1.7C24.4,87.6,20.3,79.7,17,72.5z M23.6,92.4c0.4,0.3,0.9,0.5,1.3,0.8C24.5,93,24,92.7,23.6,92.4z
			 M23.8,21.6c1.9,3.7,3.9,7.5,7.3,11.4l1.4,1.6c8,9.2,16.3,18.8,20.9,20.5l0.2,0.1c0.3-1.5-3.8-9.3-6.5-14.5
			c-2.4-4.7-5-9.5-6.1-12.4c-0.3-0.8-0.6-1.6-0.9-2.5c-2.1-6.2-5-14.7-13.2-20c-2.3,1.2-4.4,2.5-6.5,4c0.2,0.2,0.4,0.5,0.6,0.7
			c2.1,2.9,3.6,5.8,5.3,8.8c2.3,4.3,4.6,8.7,8.7,13.2c4.5,5,6,5.9,6.5,6c0-0.5-0.2-2.1-2.7-7.2c-1.8-3.7-3.1-7.1-4.2-10
			c-2.3-5.9-3.8-9.8-7.5-11.4c-2.1-0.9-2.5-0.7-2.5-0.7c-0.5,0.8,2.6,5.6,3.8,7.4l7.4,11.6c0.2,0.3,0.1,0.7-0.2,0.9
			s-0.7,0.1-0.9-0.2l-7.4-11.6c-3.4-5.4-4.7-7.8-3.7-8.9c0.6-0.7,1.8-0.6,4,0.3c4.2,1.9,5.8,6.2,8.1,12.1c1.1,2.9,2.4,6.2,4.2,9.9
			c3.5,7.3,3.1,8.4,2.4,8.9c-0.8,0.5-2.1,0.5-8.2-6.3c-4.2-4.7-6.6-9.2-8.9-13.5c-1.6-3-3.1-5.8-5.2-8.6c-0.2-0.2-0.4-0.4-0.5-0.7
			c-0.6,0.5-1.2,0.9-1.8,1.4C20.3,14.8,22.1,18.1,23.8,21.6z M23.3,92.2c-0.7-1.5-1.4-3-2.1-4.4c-1.4-3-2.8-5.9-4.1-8.4v4.4
			c1.2,2.1,2.3,4.3,3.3,6.4C21.3,90.9,22.3,91.6,23.3,92.2z M29.7,95.7l0.4,0.2L29.7,95.7z M36.1,98c-1.6-6.1-2.5-12.5-3.3-19.1
			C31.5,69.1,30.1,59,26,49.2c-2.4-5.8-5.5-11.1-9-16v3.2c3.9,5.5,7.4,11.6,9,17.1c2,6.6,3.8,14.1,4.7,19.9
			C32.4,84.1,30.6,85,30,85.3c-1.5,0.8-3.4-1.4-4.7-3.1C21.6,77,19,70,17,63.3v6.1c3.7,8.3,8.6,17.8,13.4,26.6
			c2.1,0.9,4.2,1.6,6.4,2.2L36.1,98z"/>
	</g>
	<path class="st5" d="M23,24c0,0,14.2,3,28,3c13.2,0,26-3,26-3v52l-6,1.2L70,66l-5,1l0,11.1c0,0-9,0.9-14,0.9c-13.7,0-28-3-28-3V24z
		"/>
	<path class="st6" d="M30,48v2.8c0,0,9.5,1.2,19.3,1.2C59.4,52,70,50.8,70,50.8V48c0,0-10.5,1.2-20.7,1.2C39.5,49.2,30,48,30,48z
		 M30,54v2.8c0,0,9.5,1.2,19.3,1.2C59.4,58,70,56.8,70,56.8V54c0,0-10.5,1.2-20.7,1.2C39.5,55.2,30,54,30,54z M30,42v2.8
		c0,0,9.5,1.2,19.3,1.2C59.4,46,70,44.8,70,44.8V42c0,0-10.5,1.2-20.7,1.2C39.5,43.2,30,42,30,42z M49.3,37.2C39.5,37.2,30,36,30,36
		v2.8c0,0,9.4,1.2,19.3,1.2C59.4,40,70,38.8,70,38.8V36C70,36,59.5,37.2,49.3,37.2z"/>
	<path class="st7" d="M27,5.6l-0.4,0.2c-0.3,0.2-0.7,0.4-1,0.6l-0.8,0.5c-0.3,0.2-0.6,0.3-0.9,0.5c-0.4,0.3-0.9,0.5-1.3,0.8
		l-0.4,0.2c-0.6,0.4-1.1,0.8-1.7,1.2l-0.4,0.3c-0.4,0.3-0.9,0.7-1.3,1l-0.4,0.3c-0.4,0.3-0.8,0.7-1.2,1.1L17,12.5v75.1l0.2,0.2
		c0.4,0.4,0.8,0.7,1.3,1.1l0.4,0.3c0.4,0.3,0.9,0.7,1.3,1l0.4,0.3c0.6,0.4,1.1,0.8,1.7,1.2l0.4,0.3c0.4,0.3,0.9,0.6,1.3,0.8l0.9,0.5
		l0.8,0.5c0.3,0.2,0.7,0.4,1,0.6l0.4,0.2V5.6L27,5.6z"/>
	<g class="st3">
		<path class="st8" d="M27,43.2c-2.7-5.8-5.8-11.7-10-17.4v5.3c3.9,5.2,7.3,11,10,17.2C27,48.3,27,43.2,27,43.2z M25.1,30.1
			c0.6,1.1,1.3,2.2,1.9,3.3v-3.7c-1.7-2.5-3-5-4.3-7.5C21,18.8,19.4,15.8,17,13v5.8C19.9,22.1,22.7,25.9,25.1,30.1z M27,40.2v-4.5
			c-1-1.6-2-3.2-3-5c-2-3.6-4.4-6.9-7-9.9v2.9C21.2,29,24.3,34.6,27,40.2z M24.5,9.1c-0.3,0.6,1.2,3.2,2.5,5.4V9.8
			C24.9,8.9,24.5,9.1,24.5,9.1z M17,33.3v3.2c3.9,5.5,7.4,11.6,9,17.1c0.3,1.1,0.6,2.2,1,3.3v-5.1c-0.3-0.8-0.6-1.7-1-2.5
			C23.6,43.5,20.5,38.1,17,33.3z M27,82.2v-2.7c-0.1-0.1-0.3-0.2-0.4-0.3c-2.8-2.9-9.4-19.5-9.2-28c0-1.3,0.1-2.3,0.9-2.4
			c0.6-0.1,1.7-0.1,4.9,16.3c0.1,0.3-0.2,0.7-0.5,0.8c-0.3,0.1-0.7-0.2-0.7-0.5c-1.1-5.6-2.5-11.5-3.4-14.1l0,0
			c-0.2,7.5,5.5,22.5,8.3,26.4v-2.4c-0.6-3.4-1.8-8.6-2.7-12.5c-0.6-2.5-1.2-4.9-1.6-6.9c-0.8-3.8-3.3-8.5-5.7-12.5v15.1
			c2,7.8,4.8,16.7,9.4,22.9C26.6,81.7,26.8,82,27,82.2z M17,38.7V41c2.9,4.4,6,10,7,14.6c0.4,2,1,4.4,1.6,6.9
			c0.6,2.4,1.1,4.5,1.5,6.4v-7.1c-0.7-2.6-1.4-5.3-2.2-7.8C23.3,49,20.4,43.6,17,38.7z M27,84.1c-0.6-0.6-1.1-1.3-1.6-1.9
			C21.6,77,19,70,17,63.3v6.1c2.8,6.3,6.3,13.4,10,20.3C27,89.7,27,84.1,27,84.1z M23.6,92.4l0.3,0.2l0.9,0.5l0.1,0.1
			C24.5,93,24,92.7,23.6,92.4z M17,72.5v4.1c1.6,3,3.4,6.7,5.3,10.6c1,2,2,4.1,3,6.2l0.3,0.2c0.3,0.2,0.7,0.4,1,0.6l0.4,0.2v-2
			C23.4,85.7,19.9,78.8,17,72.5z M21.1,87.8c-1.4-3-2.8-5.9-4.1-8.4v4.4c1.2,2.1,2.3,4.3,3.3,6.4l0.2,0.1c0.6,0.4,1.1,0.8,1.7,1.2
			l0.4,0.3l0.7,0.4C22.5,90.7,21.8,89.2,21.1,87.8z M21,10.4c2.1,2.9,3.6,5.8,5.3,8.8l0.7,1.4v-3.6c-3.2-5.1-4.4-7.5-3.5-8.6
			c0.6-0.7,1.6-0.6,3.5,0.1V5.7l-0.1,0l-0.3,0.2c-0.3,0.2-0.7,0.4-1,0.6l-0.8,0.5c-0.3,0.2-0.6,0.3-0.9,0.5
			c-0.4,0.3-0.9,0.5-1.3,0.8l-0.4,0.2c-0.6,0.4-1.1,0.8-1.7,1.2l0,0C20.7,9.9,20.9,10.1,21,10.4z M23.8,21.6c1,1.9,2,3.8,3.2,5.7
			v-4.1c-0.6-1.1-1.2-2.3-1.8-3.4c-1.6-3-3.1-5.8-5.2-8.6c-0.2-0.2-0.4-0.4-0.5-0.7l-0.6,0.5l-0.4,0.3l-0.8,0.6
			C20.3,14.8,22.1,18.1,23.8,21.6z M18.4,88.8L18.4,88.8l0.4,0.3c0.3,0.2,0.6,0.4,0.9,0.7C19.3,89.4,18.8,89.1,18.4,88.8z M17,86.5
			v1l0.2,0.2c0.3,0.2,0.5,0.4,0.8,0.7C17.7,87.7,17.3,87.1,17,86.5z"/>
	</g>
	<g class="st3">
		<path class="st9" d="M52,79c0.6,0,1.3,0,2-0.1L53,67h-1V79z M58,78.7c0.7-0.1,1.3-0.1,2-0.2L59,66h-1C58,66,58,78.7,58,78.7z
			 M71,65h-1v1l1,11.2l0.9-0.2L71,65z M65,65h-1l0,13.2l1-0.1L65,67l0.2,0C65.2,67,65,65,65,65z M48,79l-1-12h-1v11.9
			C46.7,78.9,47.3,78.9,48,79z M28,76.9c0.6,0.1,1.3,0.2,2.1,0.3L29,65h-1V76.9z M34,65v12.8c0.5,0.1,1.1,0.1,1.7,0.2H36l-1-13H34z
			 M40,78.5c0.6,0.1,1.3,0.1,2,0.2L41,66h-1V78.5z"/>
	</g>
	<path class="st10" d="M27,24.7c-2.5-0.4-4-0.7-4-0.7v52c0,0,1.5,0.3,4,0.7C27,76.7,27,24.7,27,24.7z"/>
</g>
<path class="st11" d="M15.1,15.6C24.7,6,36.4,1.2,50,1.2S75.3,6,84.9,15.6s14.4,21.2,14.4,34.8s-4.8,25.1-14.4,34.8
	S63.6,99.6,50,99.6s-25.3-4.8-34.9-14.4S0.7,63.9,0.7,50.4S5.5,25.2,15.1,15.6z M55,35.6v-9.9H45v9.9H55z M55,75.1V45.5H45v29.6H55z
	"/>
<path class="st12" d="M15.1,15.6C24.7,6,36.4,1.2,50,1.2S75.3,6,84.9,15.6s14.4,21.2,14.4,34.8s-4.8,25.1-14.4,34.8
	S63.6,99.6,50,99.6s-25.3-4.8-34.9-14.4S0.7,63.9,0.7,50.4S5.5,25.2,15.1,15.6z M74.6,68.2L56.8,50.4l17.8-17.8l-6.9-6.9L49.9,43.4
	L32.3,25.7l-6.9,6.9L43,50.4L25.4,68.2l6.9,6.9l17.6-17.8l17.8,17.8L74.6,68.2z"/>
<path class="st11" d="M15.1,15.6C24.7,6,36.4,1.2,50,1.2S75.3,6,84.9,15.6s14.4,21.2,14.4,34.8s-4.8,25.1-14.4,34.8
	S63.6,99.6,50,99.6s-25.3-4.8-34.9-14.4S0.7,63.9,0.7,50.4S5.5,25.2,15.1,15.6z M40.2,75.1l44.4-44.4l-6.9-7.2L40.2,61L22.4,43.4
	l-6.9,6.9L40.2,75.1z"/>
<path class="st11" d="M15.1,16.8C24.7,7.1,36.4,2.3,50,2.3s25.3,4.8,34.9,14.4S99.3,38,99.3,51.5s-4.8,25.1-14.4,34.8
	S63.6,100.7,50,100.7s-25.3-4.8-34.9-14.4S0.7,65.1,0.7,51.5S5.5,26.4,15.1,16.8z M55,56.4V26.8H45v29.6H55z M55,76.3v-9.9H45v9.9
	H55z"/>
</svg>
